# xmcd
#
# Track frame offsets:
#	150
#	13588
#	26893
#	39534
#	52545
#	63423
#	75892
#	88735
#	101703
#	113607
#	126711
#	139604
#	152827
#	164988
#	177522
#	189769
#	200758
#	214394
#	227091
#	237881
#	250583
#	262264
#	275790
#	288889
#	302214
#	315504
#	325795
#	339682
#
# Disc length: 4664 seconds
# Revision: 0
# Processed by: cddbd v1.5.2PL0 Copyright (c) Steve Scherf et al.
# Submitted via: dBpowerAMP V12.0
#
DISCID=9b12361c
DTITLE=Reg Lindsay - 1951-1955 Singles CD1 
DYEAR=1951
DGENRE=Country
TTITLE0=Blue Velvet Band
TTITLE1=Bushland Sweetheart
TTITLE2=Streamline Yodel
TTITLE3=My Home Is Way Out Back
TTITLE4=Theres A Love Knot In My Lariat
TTITLE5=Sundowner Yodel
TTITLE6=If Youve Got The Money Ive Got The Time
TTITLE7=A Picture and Memories of You
TTITLE8=Down By The Old Sliprail
TTITLE9=Till The End Of The World
TTITLE10=Im Wasting My Tears On You
TTITLE11=Sweeter Than The Flowers
TTITLE12=Shackles And Chains
TTITLE13=When The Sun Peeps Over The Hill
TTITLE14=That Southern Home Of Mine
TTITLE15=My Blue Eyed Jane
TTITLE16=Old Love Letters
TTITLE17=I Love You A Thousand Ways
TTITLE18=Country Mile
TTITLE19=A Smile From You
TTITLE20=Ill Never Live It Down
TTITLE21=Missing In Action
TTITLE22=Got Those Itchy Feet Again
TTITLE23=Suvla Bay
TTITLE24=In The Luggage Van Ahead
TTITLE25=Jimmy The Kid
TTITLE26=Mississippi Delta Blues
TTITLE27=White Petals From A Rose
EXTD=
EXTT0=
EXTT1=
EXTT2=
EXTT3=
EXTT4=
EXTT5=
EXTT6=
EXTT7=
EXTT8=
EXTT9=
EXTT10=
EXTT11=
EXTT12=
EXTT13=
EXTT14=
EXTT15=
EXTT16=
EXTT17=
EXTT18=
EXTT19=
EXTT20=
EXTT21=
EXTT22=
EXTT23=
EXTT24=
EXTT25=
EXTT26=
EXTT27=
PLAYORDER=
